<?xml version="1.0" encoding="UTF-8" ?>
<!DOCTYPE svg PUBLIC "-//W3C//DTD SVG 1.1//EN" "http://www.w3.org/Graphics/SVG/1.1/DTD/svg11.dtd">
<svg width="188pt" height="26pt" viewBox="0 0 376 52" version="1.1" xmlns="http://www.w3.org/2000/svg">
<g id="#edfbfbff">
</g>
<g id="#3270feff">
<path fill="#3270fe" opacity="1.00" d=" M 11.38 13.37 C 13.48 13.36 15.58 13.33 17.68 13.30 C 17.84 20.53 17.57 27.77 17.71 35.00 C 17.63 36.45 18.23 38.53 20.02 38.44 C 25.85 38.85 31.71 38.49 37.55 38.61 C 37.58 40.69 37.59 42.78 37.62 44.86 C 31.70 44.81 25.78 45.09 19.87 44.75 C 15.41 44.54 11.63 40.50 11.47 36.09 C 11.22 28.52 11.50 20.94 11.38 13.37 Z" />
<path fill="#3270fe" opacity="1.00" d=" M 49.35 13.28 C 58.11 13.21 66.87 13.24 75.63 13.36 C 75.60 15.42 75.54 17.49 75.51 19.56 C 68.91 19.73 62.30 19.55 55.70 19.74 C 55.68 21.77 55.70 23.80 55.70 25.83 C 61.28 25.85 66.86 25.88 72.44 25.88 C 72.44 28.02 72.44 30.15 72.45 32.28 C 64.78 32.31 57.11 32.29 49.44 32.32 C 49.34 25.97 49.40 19.63 49.35 13.28 Z" />
<path fill="#3270fe" opacity="1.00" d=" M 95.41 13.47 C 98.62 13.14 101.88 13.14 105.10 13.41 C 109.50 13.62 113.30 17.55 113.48 21.92 C 113.75 29.57 113.48 37.22 113.59 44.87 C 111.49 44.87 109.39 44.88 107.29 44.88 C 107.30 40.70 107.29 36.51 107.29 32.32 C 103.58 32.29 99.86 32.28 96.15 32.34 C 96.02 30.26 95.86 28.17 95.80 26.09 C 99.67 25.82 103.55 25.84 107.43 25.85 C 107.33 23.78 107.06 21.71 106.37 19.75 C 102.15 19.83 97.72 18.93 93.70 20.61 C 93.68 28.70 93.63 36.79 93.68 44.88 C 91.58 44.87 89.47 44.87 87.37 44.87 C 87.44 37.29 87.29 29.70 87.41 22.12 C 87.37 17.76 91.12 13.88 95.41 13.47 Z" />
<path fill="#3270fe" opacity="1.00" d=" M 125.39 13.29 C 131.30 13.36 137.22 13.10 143.12 13.39 C 147.49 13.66 151.29 17.53 151.47 21.91 C 151.67 26.61 151.65 31.34 151.49 36.04 C 151.40 40.51 147.57 44.53 143.09 44.77 C 137.19 45.08 131.27 44.80 125.36 44.87 C 125.37 41.43 125.38 37.99 125.40 34.55 C 127.47 34.55 129.55 34.54 131.62 34.53 C 131.64 35.87 131.65 37.21 131.67 38.55 C 135.82 38.50 140.04 39.01 144.14 38.20 C 145.55 36.86 145.19 34.77 145.31 33.02 C 145.14 28.58 145.88 24.00 144.41 19.71 C 140.16 19.55 135.92 19.53 131.67 19.60 C 131.66 23.83 131.66 28.07 131.63 32.30 C 129.56 32.30 127.49 32.31 125.43 32.32 C 125.33 25.97 125.38 19.63 125.39 13.29 Z" />
<path fill="#3270fe" opacity="1.00" d=" M 170.66 13.55 C 175.89 12.93 181.19 13.42 186.45 13.31 C 186.44 15.39 186.44 17.47 186.43 19.54 C 181.16 19.59 175.89 19.51 170.63 19.68 C 169.96 21.52 168.90 23.90 170.71 25.47 C 175.92 26.67 182.23 24.43 186.58 28.41 C 192.02 33.03 189.55 43.14 182.49 44.56 C 176.60 45.29 170.62 44.72 164.70 44.86 C 164.70 42.78 164.71 40.71 164.72 38.63 C 170.61 38.54 176.52 38.78 182.41 38.38 C 182.92 36.54 184.04 34.18 182.25 32.65 C 176.82 31.54 170.02 33.89 165.81 29.19 C 160.94 24.28 163.82 14.79 170.66 13.55 Z" />
<path fill="#3270fe" opacity="1.00" d=" M 202.79 17.76 C 206.32 12.04 214.69 12.14 219.90 15.36 C 224.45 12.60 231.04 12.10 235.27 15.69 C 237.65 17.73 238.55 20.93 238.46 23.97 C 238.48 30.94 238.43 37.90 238.45 44.87 C 236.35 44.87 234.26 44.88 232.16 44.89 C 232.03 37.26 232.44 29.61 231.99 22.00 C 231.63 18.64 227.22 19.54 224.88 19.75 C 222.86 20.14 223.26 22.44 223.10 23.96 C 223.07 30.93 223.14 37.90 223.10 44.87 C 220.97 44.87 218.85 44.87 216.72 44.88 C 216.61 37.26 216.92 29.63 216.59 22.02 C 216.76 20.15 214.60 19.44 213.08 19.55 C 211.33 19.67 208.84 19.06 207.95 21.05 C 207.37 24.77 207.72 28.55 207.62 32.30 C 205.55 32.30 203.48 32.31 201.42 32.31 C 201.68 27.49 200.32 22.18 202.79 17.76 Z" />
<path fill="#3270fe" opacity="1.00" d=" M 250.26 13.29 C 258.98 13.33 267.71 13.18 276.43 13.45 C 276.42 15.46 276.41 17.47 276.40 19.49 C 269.80 19.72 263.19 19.56 256.59 19.69 C 256.56 21.74 256.53 23.79 256.51 25.84 C 262.10 25.88 267.71 25.69 273.29 26.05 C 273.28 28.12 273.27 30.20 273.26 32.28 C 265.63 32.33 257.99 32.24 250.35 32.35 C 250.16 26.00 250.29 19.65 250.26 13.29 Z" />
<path fill="#3270fe" opacity="1.00" d=" M 313.39 13.61 C 316.93 13.07 320.55 13.14 324.12 13.40 C 328.88 13.66 332.52 18.28 332.48 22.91 C 332.64 30.22 332.46 37.54 332.54 44.86 C 330.44 44.87 328.33 44.87 326.23 44.89 C 326.24 40.70 326.24 36.51 326.24 32.32 C 322.44 32.30 318.65 32.29 314.86 32.28 C 314.86 30.13 314.86 27.98 314.87 25.84 C 318.69 25.81 322.51 25.84 326.34 25.84 C 326.03 23.82 326.86 20.39 324.09 19.87 C 320.30 19.50 316.34 19.29 312.68 20.54 C 312.60 28.65 312.60 36.76 312.63 44.87 C 310.52 44.87 308.41 44.87 306.31 44.87 C 306.40 37.53 306.21 30.19 306.40 22.86 C 306.34 18.71 309.15 14.37 313.39 13.61 Z" />
<path fill="#3270fe" opacity="1.00" d=" M 344.36 13.38 C 346.44 13.34 348.53 13.25 350.61 13.21 C 350.62 23.76 350.61 34.32 350.63 44.87 C 348.52 44.87 346.41 44.87 344.31 44.88 C 344.33 34.38 344.32 23.88 344.36 13.38 Z" />
<path fill="#3270fe" opacity="1.00" d=" M 49.20 34.58 C 51.24 34.55 53.28 34.54 55.31 34.53 C 55.79 35.79 56.02 37.18 56.84 38.27 C 63.03 39.06 69.32 38.39 75.55 38.60 C 75.58 40.69 75.58 42.77 75.62 44.86 C 69.47 44.79 63.30 45.13 57.17 44.72 C 52.24 44.13 49.25 39.24 49.20 34.58 Z" />
<path fill="#3270fe" opacity="1.00" d=" M 201.35 44.87 C 201.36 41.43 201.36 37.99 201.40 34.55 C 203.47 34.54 205.54 34.54 207.62 34.54 C 207.65 37.98 207.66 41.43 207.66 44.88 C 205.56 44.87 203.45 44.87 201.35 44.87 Z" />
<path fill="#3270fe" opacity="1.00" d=" M 258.22 44.75 C 253.20 44.27 250.02 39.32 250.11 34.55 C 252.13 34.55 254.16 34.55 256.19 34.56 C 256.68 35.80 256.74 37.33 257.75 38.31 C 263.94 39.01 270.21 38.41 276.44 38.62 C 276.44 40.70 276.45 42.78 276.46 44.86 C 270.38 44.79 264.29 45.10 258.22 44.75 Z" />
<path fill="#3270fe" opacity="1.00" d=" M 288.22 44.87 C 288.24 43.39 288.26 41.90 288.28 40.42 C 290.36 40.43 292.44 40.43 294.52 40.44 C 294.52 41.92 294.52 43.40 294.53 44.89 C 292.42 44.88 290.32 44.88 288.22 44.87 Z" />
</g>
</svg>
